<svg viewBox="0 0 100 100" xmlns="http://www.w3.org/2000/svg">
  <path d="M46 61.1953V91.812C37.7878 91.0361 30.2639 87.8956 24.1166 83.0787L46 61.1953ZM46 49.8816L18.3134 77.5683C11.8898 70.1913 8 60.5499 8 50C8 28.1532 24.6803 10.2022 46 8.188V49.8816ZM54 53.1953V91.812C75.3197 89.7978 92 71.8468 92 50C92 40.2356 88.6679 31.2494 83.0787 24.1166L54 53.1953ZM77.5683 18.3134L54 41.8816V8.188C62.9788 9.03629 71.1347 12.7112 77.5683 18.3134ZM50 100C77.6142 100 100 77.6142 100 50C100 22.3858 77.6142 0 50 0C22.3858 0 0 22.3858 0 50C0 77.6142 22.3858 100 50 100Z" />
</svg>
