<svg xmlns="http://www.w3.org/2000/svg" viewBox="0 0 480 260">
  <path fill="#000" d="M476.678 140.71c-1.028-.741-2.218-1.227-3.471-1.419-1.254-.191-2.534-.081-3.737.319l-46.756 15.59c-5.242-.078-10.385-1.446-14.974-3.981-4.589-2.536-8.484-6.162-11.34-10.559 10.184.151 20.278-1.921 29.579-6.071 9.301-4.149 17.585-10.278 24.275-17.957 6.69-7.68 11.625-16.7257 14.461-26.5077 2.836-9.7821 3.505-20.0649 1.96-30.1319l-2.771-18.008c-.182-1.1814-.626-2.307-1.3-3.2942-.673-.9872-1.56-1.8109-2.594-2.4105-1.034-.5997-2.189-.96-3.38-1.0545-1.192-.0945-2.389.0791-3.505.5082l-54.837 21.091c-2.808-12.6879-8.976-24.3876-17.857-33.8744-8.881-9.4868-20.149-16.41196-32.624-20.05049-12.475-3.638523-25.699-3.856671-38.287-.6316-12.589 3.22506-24.079 9.77479-33.268 18.96349L240 57.4864l-36.255-36.255c-9.189-9.1887-20.679-15.73831-33.268-18.96335-12.588-3.225032-25.812-3.006879-38.288.63163-12.475 3.63851-23.743 10.56362-32.6237 20.05042-8.8811 9.4867-15.0487 21.1864-17.8573 33.8743l-54.836-21.091c-1.1156-.4291-2.3131-.6027-3.5046-.5082-1.1915.0945-2.3467.4548-3.3807 1.0545-1.0339.5996-1.9204 1.4233-2.5942 2.4105-.6738.9872-1.1179 2.1128-1.2995 3.2942l-2.771 18.008c-1.5451 10.0672-.8763 20.3503 1.9599 30.1326 2.8361 9.7823 7.7714 18.828 14.4618 26.508 6.6904 7.679 14.975 13.808 24.2764 17.957 9.3014 4.15 19.3959 6.222 29.5799 6.07-2.8565 4.397-6.751 8.023-11.34 10.559-4.5891 2.535-9.7316 3.903-14.974 3.981L10.53 139.611c-1.20254-.4-2.48312-.51-3.73623-.319-1.2531.191-2.44286.678-3.47121 1.419-1.02836.741-1.86588 1.716-2.443547 2.844C.301344 144.683.0000645 145.933 0 147.2v56c.00002663 1.162.253114 2.31.741663 3.364.488547 1.054 1.200837 1.989 2.087337 2.74.88649.751 1.92592 1.3 3.04602 1.609 1.12009.308 2.29396.369 3.43998.178l44.476-7.412 19.439 15.552c13.0001 10.344 29.123 15.973 45.736 15.969h.54c11.998-.012 23.804-3.019 34.346-8.748 10.542-5.73 19.488-14 26.025-24.061l54.466 54.466c.743.743 1.625 1.333 2.595 1.735.971.402 2.011.609 3.062.609 1.051 0 2.091-.207 3.062-.609.97-.402 1.852-.992 2.595-1.735l54.466-54.466c6.537 10.061 15.483 18.331 26.025 24.061 10.542 5.729 22.348 8.736 34.346 8.748h.54c16.613.004 32.736-5.625 45.736-15.969l19.439-15.552 44.476 7.412c1.146.191 2.32.13 3.44-.178 1.12-.309 2.159-.858 3.046-1.609.886-.751 1.599-1.686 2.087-2.74.489-1.054.742-2.202.742-3.364v-56c0-1.267-.301-2.517-.879-3.645-.577-1.128-1.415-2.103-2.443-2.845zM176 162.677l-.057.456-15.976.067c-2.122.005-4.155.852-5.652 2.355-1.497 1.504-2.336 3.54-2.331 5.662.004 2.122.851 4.155 2.354 5.652 1.504 1.497 3.54 2.336 5.662 2.331h.034l13.142-.055c-.815 2.761-1.844 5.454-3.076 8.055H136c-2.122 0-4.157.843-5.657 2.344-1.5 1.5-2.343 3.535-2.343 5.656 0 2.122.843 4.157 2.343 5.657 1.5 1.501 3.535 2.343 5.657 2.343h22.649c-10.45 10.253-24.504 15.997-39.143 16h-.54c-12.98.009-25.5787-4.384-35.739-12.462L61 188.953c-.8777-.702-1.8936-1.211-2.9813-1.494-1.0878-.284-2.223-.334-3.3317-.15L16 193.756V182.3l13.47 4.49c.9996.345 2.0575.487 3.1125.42 1.0551-.067 2.0864-.343 3.0343-.811.9479-.468 1.7936-1.119 2.4883-1.916.6947-.797 1.2245-1.724 1.5588-2.727.3344-1.003.4666-2.062.3892-3.116-.0775-1.054-.3632-2.083-.8406-3.026-.4774-.944-1.137-1.783-1.9408-2.47-.8037-.686-1.7355-1.207-2.7417-1.532L16 165.434V158.3l36.74 12.246c1.299.434 2.6595.655 4.029.654 10.7074.013 21.1105-3.561 29.5503-10.15 8.4398-6.59 14.4297-15.815 17.0157-26.206l.426-1.7c.325-1.297.319-2.656-.017-3.95-.336-1.295-.991-2.485-1.905-3.461-.915-.976-2.0596-1.708-3.3297-2.127-1.2702-.42-2.6253-.514-3.9413-.275l-2.4.436c-13.0486 2.355-26.5077-.16-37.825-7.069-11.3173-6.909-19.7059-17.7302-23.575-30.4126l54.421 20.4076c1.9867.745 4.188.671 6.1197-.207 1.9316-.878 3.4353-2.488 4.1803-4.475.745-1.986.6702-4.1876-.2078-6.1193-.878-1.9316-2.4875-3.4353-4.4742-4.1803l-62.249-23.346c.0867-1.9889.28-3.9718.579-5.94l1.26-8.193 79.203 30.468c3.593 1.3836 6.802 3.6108 9.354 6.4938 2.552 2.8831 4.374 6.3376 5.312 10.0718l.088.356c1.536 6.168 5.093 11.644 10.103 15.555 5.011 3.911 11.187 6.031 17.543 6.023 2.121 0 4.156-.843 5.656-2.343l9.374-9.373c4.501-4.5 10.605-7.029 16.971-7.029 6.365 0 12.469 2.529 16.97 7.029l11.841 11.841c-9.931.807-19.205 5.285-26.012 12.561-6.807 7.277-10.657 16.829-10.8 26.791zm64 77.21l-52.643-52.644c1.746-4.904 2.953-9.985 3.6-15.151 0 0 1.043-8.562 1.043-8.892.007-6.363 2.538-12.463 7.037-16.962 4.5-4.5 10.6-7.03 16.963-7.038h16c1.582 0 3.129-.469 4.445-1.348 1.315-.879 2.341-2.128 2.946-3.59.39-.94.594-1.941.608-2.949.015 1.008.219 2.009.609 2.949.605 1.462 1.631 2.711 2.947 3.59 1.315.88 2.862 1.349 4.445 1.348h16c6.363.008 12.463 2.538 16.963 7.038 4.499 4.499 7.03 10.599 7.037 16.962 0 .33 1.045 8.892 1.045 8.892.647 5.167 1.854 10.247 3.6 15.152L240 239.887zm.153-110.248c-.096.479-.147.964-.154 1.448-.006-.484-.057-.968-.152-1.447-.309-1.552-1.071-2.978-2.19-4.097l-25.373-25.372c-7.501-7.5006-17.675-11.7146-28.283-11.7146-10.609 0-20.783 4.214-28.284 11.7146l-6.678 6.677c-2.211-.536-4.233-1.668-5.847-3.272-1.614-1.604-2.758-3.6196-3.308-5.8276l-.089-.356c-1.561-6.2284-4.597-11.99-8.851-16.7991-4.255-4.8091-9.603-8.5245-15.595-10.8329l-18.484-7.109c1.7985-10.1738 6.353-19.6596 13.167-27.425 6.815-7.7654 15.629-13.5131 25.483-16.6177 9.854-3.1045 20.371-3.4469 30.406-.99s19.205 7.619 26.51 14.9247l41.912 41.912c.743.7429 1.625 1.3322 2.595 1.7343.971.4021 2.011.609 3.062.609 1.051 0 2.091-.2069 3.062-.609.97-.4021 1.852-.9914 2.595-1.7343l41.912-41.912c7.305-7.3057 16.475-12.4678 26.51-14.9247 10.035-2.4569 20.552-2.1145 30.406.99 9.854 3.1046 18.668 8.8523 25.483 16.6177 6.814 7.7654 11.369 17.2512 13.167 27.425l-18.484 7.109c-5.994 2.3098-11.344 6.0273-15.599 10.8389-4.256 4.8116-7.291 10.576-8.851 16.8071l-.081.329c-.55 2.2098-1.694 4.2266-3.308 5.8326-1.615 1.606-3.638 2.739-5.851 3.277l-6.677-6.676c-7.501-7.5006-17.675-11.7146-28.284-11.7146-10.608 0-20.782 4.214-28.283 11.7146l-25.374 25.373c-1.119 1.119-1.882 2.545-2.19 4.097zM464 165.434l-18.53 6.177c-1.006.325-1.938.846-2.742 1.532-.803.687-1.463 1.526-1.94 2.47-.478.943-.764 1.972-.841 3.026-.078 1.054.055 2.113.389 3.116.334 1.003.864 1.93 1.559 2.727.695.797 1.54 1.448 2.488 1.916.948.468 1.979.744 3.034.811 1.056.067 2.113-.075 3.113-.42L464 182.3v11.457l-38.685-6.447c-1.109-.186-2.245-.135-3.333.148-1.088.283-2.104.793-2.982 1.495l-22.229 17.785c-10.16 8.077-22.758 12.47-35.737 12.462h-.54c-14.639-.003-28.693-5.747-39.143-16H344c2.122 0 4.157-.842 5.657-2.343 1.5-1.5 2.343-3.535 2.343-5.657 0-2.121-.843-4.156-2.343-5.656-1.5-1.501-3.535-2.344-5.657-2.344h-34.1c-1.233-2.601-2.263-5.294-3.079-8.055l13.142.055H320c2.122.005 4.158-.834 5.662-2.331 1.503-1.498 2.35-3.531 2.354-5.653.004-2.121-.835-4.158-2.332-5.661-1.497-1.503-3.53-2.35-5.652-2.355l-15.979-.067-.057-.456c-.143-9.962-3.993-19.513-10.799-26.789-6.806-7.276-16.08-11.755-26.01-12.562l11.842-11.842c4.501-4.5 10.605-7.029 16.971-7.029 6.365 0 12.469 2.529 16.97 7.029l9.373 9.372c.743.743 1.625 1.333 2.595 1.735.971.402 2.011.609 3.062.609 6.358.007 12.535-2.117 17.546-6.031 5.011-3.914 8.567-9.393 10.1-15.564l.081-.329c.937-3.7366 2.76-7.1934 5.314-10.0783 2.553-2.8849 5.763-5.1133 9.359-6.4973l79.2-30.468 1.26 8.193c.299 1.9682.492 3.9511.579 5.94l-62.251 23.344c-.984.3689-1.885.9279-2.653 1.6452-.768.7172-1.386 1.5787-1.821 2.5351-.435.9565-.677 1.9892-.713 3.0392-.035 1.05.136 2.0971.505 3.0801.369.984.928 1.886 1.645 2.653.717.768 1.579 1.387 2.535 1.822.957.434 1.989.676 3.039.712 1.051.036 2.097-.136 3.081-.505l54.421-20.4076c-3.869 12.6823-12.258 23.5036-23.575 30.4126-11.317 6.909-24.776 9.424-37.825 7.069l-2.4-.436c-1.316-.239-2.671-.145-3.941.275-1.27.419-2.415 1.151-3.33 2.127-.914.976-1.569 2.166-1.905 3.461-.336 1.294-.342 2.653-.017 3.95l.426 1.7c2.585 10.392 8.576 19.619 17.017 26.209 8.441 6.59 18.845 10.163 29.554 10.149 1.369.001 2.73-.22 4.029-.654L464 158.3v7.134zM293 123.2c2.761 0 5-2.238 5-5 0-2.761-2.239-5-5-5s-5 2.239-5 5c0 2.762 2.239 5 5 5zm-101-5c0 2.762-2.239 5-5 5s-5-2.238-5-5c0-2.761 2.239-5 5-5s5 2.239 5 5z" />
</svg>
